<svg width="903" height="1042" viewBox="0 0 903 1042" fill="none" xmlns="http://www.w3.org/2000/svg">
<g id="mark">
<path id="Polygon" d="M451.015 0L902.03 260.394V781.181L451.015 1041.57L0 781.181V260.394L451.015 0Z" fill="black"/>
<path id="Polygon_2" d="M451.013 21L884.025 271V771L451.013 1021L18 771V271L451.013 21Z" fill="white"/>
<path id="Union" fill-rule="evenodd" clip-rule="evenodd" d="M451.015 0L902.03 260.394V781.181L451.015 1041.57L0 781.181V260.394L451.015 0ZM451.013 21L884.025 271H675.59L451.013 521L18.0001 271L451.013 21ZM18.0001 333V771L451.013 1021L884.025 771V333L451.013 583L18.0001 333ZM757.013 781.321L830.013 739.115V427L757.013 469.206V781.321ZM631.013 854.171L703.013 812.543V500.428L631.013 542.056V854.171ZM505.013 927.02V614.905L577.013 573.277V885.393L505.013 927.02Z" fill="black"/>
</g>
</svg>
