<svg width="3064" height="1042" viewBox="0 0 3064 1042" fill="none" xmlns="http://www.w3.org/2000/svg">
<path d="M451 9L894 264.75V776.25L451 1032L8 776.25V264.75L451 9Z" fill="white"/>
<path d="M757.013 781.321L830.013 739.115V427L757.013 469.206V781.321Z" fill="black"/>
<path d="M703.013 812.543L631.013 854.171V542.056L703.013 500.428V812.543Z" fill="black"/>
<path d="M505.013 927.021V614.905L577.013 573.277V885.393L505.013 927.021Z" fill="black"/>
<path fill-rule="evenodd" clip-rule="evenodd" d="M451.015 0L902.03 260.394V781.181L451.015 1041.57L0 781.181V260.394L451.015 0ZM451.013 21L884.025 271H675.59L451.013 521L18.0001 271L451.013 21ZM18 333L18.0001 771L451.013 1021L884.025 771L884.025 333L451.013 583L18 333Z" fill="black"/>
<path d="M1271.25 259H1387.5V284.75H1303.25V333.5H1382.5V359.5H1303.25V437H1271.25V259ZM1466.88 439C1454.04 439 1442.71 436.333 1432.88 431C1423.21 425.667 1415.71 418.083 1410.38 408.25C1405.21 398.25 1402.63 386.583 1402.63 373.25C1402.63 359.917 1405.21 348.333 1410.38 338.5C1415.71 328.5 1423.21 320.833 1432.88 315.5C1442.71 310.167 1454.04 307.5 1466.88 307.5C1479.54 307.5 1490.71 310.167 1500.38 315.5C1510.04 320.833 1517.46 328.5 1522.63 338.5C1527.96 348.333 1530.63 359.917 1530.63 373.25C1530.63 386.583 1527.96 398.25 1522.63 408.25C1517.46 418.083 1510.04 425.667 1500.38 431C1490.71 436.333 1479.54 439 1466.88 439ZM1466.63 414.5C1477.29 414.5 1485.38 411.083 1490.88 404.25C1496.54 397.25 1499.38 386.917 1499.38 373.25C1499.38 359.75 1496.54 349.5 1490.88 342.5C1485.21 335.333 1477.21 331.75 1466.88 331.75C1456.38 331.75 1448.29 335.333 1442.63 342.5C1436.96 349.5 1434.13 359.75 1434.13 373.25C1434.13 386.917 1436.88 397.25 1442.38 404.25C1448.04 411.083 1456.13 414.5 1466.63 414.5ZM1672.57 310.75V437H1642.07V417.5C1638.07 424.5 1632.74 429.833 1626.07 433.5C1619.41 437.167 1611.74 439 1603.07 439C1572.24 439 1556.82 421.667 1556.82 387V310.75H1587.82V387.25C1587.82 396.417 1589.66 403.167 1593.32 407.5C1597.16 411.833 1602.99 414 1610.82 414C1619.99 414 1627.32 411 1632.82 405C1638.32 399 1641.07 391 1641.07 381V310.75H1672.57ZM1778.75 307.5C1808.92 307.5 1824 324.833 1824 359.5V437H1792.75V361C1792.75 351 1790.83 343.75 1787 339.25C1783.17 334.583 1777.25 332.25 1769.25 332.25C1759.75 332.25 1752.08 335.333 1746.25 341.5C1740.42 347.5 1737.5 355.5 1737.5 365.5V437H1706.5V346.5C1706.5 333.167 1705.83 321.25 1704.5 310.75H1733.75L1736 331.5C1740.33 323.833 1746.17 317.917 1753.5 313.75C1761 309.583 1769.42 307.5 1778.75 307.5ZM1977.88 253V437H1947.13V416.75C1943.3 423.75 1937.8 429.25 1930.63 433.25C1923.47 437.083 1915.3 439 1906.13 439C1895.3 439 1885.63 436.25 1877.13 430.75C1868.63 425.25 1861.97 417.5 1857.13 407.5C1852.47 397.333 1850.13 385.75 1850.13 372.75C1850.13 359.75 1852.47 348.333 1857.13 338.5C1861.8 328.667 1868.38 321.083 1876.88 315.75C1885.38 310.25 1895.13 307.5 1906.13 307.5C1915.13 307.5 1923.13 309.417 1930.13 313.25C1937.3 316.917 1942.8 322.167 1946.63 329V253H1977.88ZM1914.38 414.5C1924.72 414.5 1932.72 410.917 1938.38 403.75C1944.22 396.583 1947.13 386.417 1947.13 373.25C1947.13 360.083 1944.3 349.917 1938.63 342.75C1932.97 335.583 1924.97 332 1914.63 332C1904.13 332 1895.97 335.583 1890.13 342.75C1884.47 349.75 1881.63 359.75 1881.63 372.75C1881.63 385.917 1884.47 396.167 1890.13 403.5C1895.97 410.833 1904.05 414.5 1914.38 414.5ZM2132.67 310.75V437H2101.92V416.75C2098.09 423.75 2092.59 429.25 2085.42 433.25C2078.25 437.083 2070.09 439 2060.92 439C2049.92 439 2040.17 436.333 2031.67 431C2023.17 425.667 2016.59 418.083 2011.92 408.25C2007.25 398.417 2004.92 387 2004.92 374C2004.92 361 2007.25 349.5 2011.92 339.5C2016.75 329.333 2023.42 321.5 2031.92 316C2040.42 310.333 2050.09 307.5 2060.92 307.5C2070.09 307.5 2078.25 309.5 2085.42 313.5C2092.59 317.333 2098.09 322.75 2101.92 329.75V310.75H2132.67ZM2069.42 414.5C2079.75 414.5 2087.75 410.917 2093.42 403.75C2099.09 396.583 2101.92 386.5 2101.92 373.5C2101.92 360.167 2099.09 349.917 2093.42 342.75C2087.75 335.583 2079.67 332 2069.17 332C2058.84 332 2050.75 335.75 2044.92 343.25C2039.25 350.583 2036.42 360.833 2036.42 374C2036.42 387 2039.25 397 2044.92 404C2050.75 411 2058.92 414.5 2069.42 414.5ZM2206.46 334.25V390.75C2206.46 405.583 2213.37 413 2227.21 413C2231.04 413 2235.21 412.333 2239.71 411V435.75C2234.21 437.75 2227.54 438.75 2219.71 438.75C2205.37 438.75 2194.37 434.75 2186.71 426.75C2179.04 418.75 2175.21 407.25 2175.21 392.25V334.25H2150.96V310.75H2175.21V280L2206.46 269.5V310.75H2239.96V334.25H2206.46ZM2261.43 310.75H2292.43V437H2261.43V310.75ZM2294.18 253.5V284.25H2259.43V253.5H2294.18ZM2383.87 439C2371.03 439 2359.7 436.333 2349.87 431C2340.2 425.667 2332.7 418.083 2327.37 408.25C2322.2 398.25 2319.62 386.583 2319.62 373.25C2319.62 359.917 2322.2 348.333 2327.37 338.5C2332.7 328.5 2340.2 320.833 2349.87 315.5C2359.7 310.167 2371.03 307.5 2383.87 307.5C2396.53 307.5 2407.7 310.167 2417.37 315.5C2427.03 320.833 2434.45 328.5 2439.62 338.5C2444.95 348.333 2447.62 359.917 2447.62 373.25C2447.62 386.583 2444.95 398.25 2439.62 408.25C2434.45 418.083 2427.03 425.667 2417.37 431C2407.7 436.333 2396.53 439 2383.87 439ZM2383.62 414.5C2394.28 414.5 2402.37 411.083 2407.87 404.25C2413.53 397.25 2416.37 386.917 2416.37 373.25C2416.37 359.75 2413.53 349.5 2407.87 342.5C2402.2 335.333 2394.2 331.75 2383.87 331.75C2373.37 331.75 2365.28 335.333 2359.62 342.5C2353.95 349.5 2351.12 359.75 2351.12 373.25C2351.12 386.917 2353.87 397.25 2359.37 404.25C2365.03 411.083 2373.12 414.5 2383.62 414.5ZM2546.82 307.5C2576.98 307.5 2592.07 324.833 2592.07 359.5V437H2560.82V361C2560.82 351 2558.9 343.75 2555.07 339.25C2551.23 334.583 2545.32 332.25 2537.32 332.25C2527.82 332.25 2520.15 335.333 2514.32 341.5C2508.48 347.5 2505.57 355.5 2505.57 365.5V437H2474.57V346.5C2474.57 333.167 2473.9 321.25 2472.57 310.75H2501.82L2504.07 331.5C2508.4 323.833 2514.23 317.917 2521.57 313.75C2529.07 309.583 2537.48 307.5 2546.82 307.5ZM2753.55 277.75C2740.05 277.75 2733.3 285.167 2733.3 300V310.75H2761.55V334.25H2733.3V437H2702.05V334.25H2678.05V310.75H2702.05V298.5C2702.05 283.5 2705.8 272 2713.3 264C2720.97 255.833 2731.89 251.75 2746.05 251.75C2753.89 251.75 2760.47 252.75 2765.8 254.75V279.5C2761.14 278.333 2757.05 277.75 2753.55 277.75ZM2841.63 439C2828.8 439 2817.46 436.333 2807.63 431C2797.96 425.667 2790.46 418.083 2785.13 408.25C2779.96 398.25 2777.38 386.583 2777.38 373.25C2777.38 359.917 2779.96 348.333 2785.13 338.5C2790.46 328.5 2797.96 320.833 2807.63 315.5C2817.46 310.167 2828.8 307.5 2841.63 307.5C2854.3 307.5 2865.46 310.167 2875.13 315.5C2884.8 320.833 2892.21 328.5 2897.38 338.5C2902.71 348.333 2905.38 359.917 2905.38 373.25C2905.38 386.583 2902.71 398.25 2897.38 408.25C2892.21 418.083 2884.8 425.667 2875.13 431C2865.46 436.333 2854.3 439 2841.63 439ZM2841.38 414.5C2852.05 414.5 2860.13 411.083 2865.63 404.25C2871.3 397.25 2874.13 386.917 2874.13 373.25C2874.13 359.75 2871.3 349.5 2865.63 342.5C2859.96 335.333 2851.96 331.75 2841.63 331.75C2831.13 331.75 2823.05 335.333 2817.38 342.5C2811.71 349.5 2808.88 359.75 2808.88 373.25C2808.88 386.917 2811.63 397.25 2817.13 404.25C2822.8 411.083 2830.88 414.5 2841.38 414.5ZM3000.33 307.75C3005.16 307.75 3009.33 308.417 3012.83 309.75L3012.58 338.25C3007.25 336.083 3001.75 335 2996.08 335C2985.41 335 2977.25 338.083 2971.58 344.25C2966.08 350.417 2963.33 358.583 2963.33 368.75V437H2932.33V346.5C2932.33 333.167 2931.66 321.25 2930.33 310.75H2959.58L2962.08 333C2965.25 324.833 2970.25 318.583 2977.08 314.25C2983.91 309.917 2991.66 307.75 3000.33 307.75ZM1271.25 573H1348.5C1367.67 573 1382.58 577.667 1393.25 587C1403.92 596.167 1409.25 608.75 1409.25 624.75C1409.25 640.75 1403.83 653.417 1393 662.75C1382.33 672.083 1367.5 676.75 1348.5 676.75H1303.5V751H1271.25V573ZM1344.75 651.75C1355.92 651.75 1364.33 649.5 1370 645C1375.83 640.333 1378.75 633.667 1378.75 625C1378.75 616.167 1375.92 609.5 1370.25 605C1364.58 600.333 1356.08 598 1344.75 598H1303.5V651.75H1344.75ZM1548.31 624.75V751H1517.81V731.5C1513.81 738.5 1508.47 743.833 1501.81 747.5C1495.14 751.167 1487.47 753 1478.81 753C1447.97 753 1432.56 735.667 1432.56 701V624.75H1463.56V701.25C1463.56 710.417 1465.39 717.167 1469.06 721.5C1472.89 725.833 1478.72 728 1486.56 728C1495.72 728 1503.06 725 1508.56 719C1514.06 713 1516.81 705 1516.81 695V624.75H1548.31ZM1654.23 621.5C1665.23 621.5 1674.9 624.25 1683.23 629.75C1691.73 635.083 1698.32 642.667 1702.98 652.5C1707.65 662.333 1709.98 673.75 1709.98 686.75C1709.98 699.75 1707.57 711.333 1702.73 721.5C1698.07 731.5 1691.48 739.25 1682.98 744.75C1674.65 750.25 1665.07 753 1654.23 753C1644.9 753 1636.57 751 1629.23 747C1622.07 743 1616.65 737.417 1612.98 730.25V751H1582.23V567H1613.23V643.75C1617.07 636.75 1622.57 631.333 1629.73 627.5C1636.9 623.5 1645.07 621.5 1654.23 621.5ZM1645.98 728.5C1656.32 728.5 1664.32 724.833 1669.98 717.5C1675.65 710.167 1678.48 699.917 1678.48 686.75C1678.48 673.75 1675.65 663.75 1669.98 656.75C1664.32 649.583 1656.23 646 1645.73 646C1635.23 646 1627.15 649.583 1621.48 656.75C1615.82 663.917 1612.98 674.083 1612.98 687.25C1612.98 700.583 1615.82 710.833 1621.48 718C1627.15 725 1635.32 728.5 1645.98 728.5ZM1737.26 567H1768.26V751H1737.26V567ZM1802.45 624.75H1833.45V751H1802.45V624.75ZM1835.2 567.5V598.25H1800.45V567.5H1835.2ZM1924.88 753C1911.72 753 1900.3 750.333 1890.63 745C1880.97 739.667 1873.55 732.167 1868.38 722.5C1863.22 712.667 1860.63 701.167 1860.63 688C1860.63 674.833 1863.3 663.25 1868.63 653.25C1874.13 643.25 1881.8 635.5 1891.63 630C1901.63 624.333 1913.13 621.5 1926.13 621.5C1935.13 621.5 1943.8 622.917 1952.13 625.75C1960.63 628.583 1967.38 632.5 1972.38 637.5L1963.63 659.5C1958.3 655.167 1952.63 651.917 1946.63 649.75C1940.63 647.417 1934.72 646.25 1928.88 646.25C1917.55 646.25 1908.72 649.833 1902.38 657C1896.05 664 1892.88 674.167 1892.88 687.5C1892.88 700.833 1895.97 711 1902.13 718C1908.47 725 1917.38 728.5 1928.88 728.5C1934.72 728.5 1940.63 727.333 1946.63 725C1952.63 722.667 1958.3 719.333 1963.63 715L1972.38 737C1967.05 742 1960.13 745.917 1951.63 748.75C1943.13 751.583 1934.22 753 1924.88 753ZM2144.97 753.25C2127.47 753.25 2112.14 749.5 2098.97 742C2085.97 734.5 2075.97 723.917 2068.97 710.25C2061.97 696.417 2058.47 680.25 2058.47 661.75C2058.47 643.417 2061.97 627.417 2068.97 613.75C2075.97 599.917 2085.97 589.333 2098.97 582C2112.14 574.5 2127.47 570.75 2144.97 570.75C2156.97 570.75 2168.22 572.667 2178.72 576.5C2189.39 580.167 2198.22 585.333 2205.22 592L2194.72 615.5C2186.72 609 2178.72 604.333 2170.72 601.5C2162.89 598.5 2154.47 597 2145.47 597C2128.3 597 2114.97 602.583 2105.47 613.75C2096.14 624.917 2091.47 640.917 2091.47 661.75C2091.47 682.75 2096.14 698.917 2105.47 710.25C2114.8 721.417 2128.14 727 2145.47 727C2154.47 727 2162.89 725.583 2170.72 722.75C2178.72 719.75 2186.72 715 2194.72 708.5L2205.22 732C2198.22 738.667 2189.39 743.917 2178.72 747.75C2168.22 751.417 2156.97 753.25 2144.97 753.25ZM2287.92 753C2275.09 753 2263.75 750.333 2253.92 745C2244.25 739.667 2236.75 732.083 2231.42 722.25C2226.25 712.25 2223.67 700.583 2223.67 687.25C2223.67 673.917 2226.25 662.333 2231.42 652.5C2236.75 642.5 2244.25 634.833 2253.92 629.5C2263.75 624.167 2275.09 621.5 2287.92 621.5C2300.59 621.5 2311.75 624.167 2321.42 629.5C2331.09 634.833 2338.5 642.5 2343.67 652.5C2349 662.333 2351.67 673.917 2351.67 687.25C2351.67 700.583 2349 712.25 2343.67 722.25C2338.5 732.083 2331.09 739.667 2321.42 745C2311.75 750.333 2300.59 753 2287.92 753ZM2287.67 728.5C2298.34 728.5 2306.42 725.083 2311.92 718.25C2317.59 711.25 2320.42 700.917 2320.42 687.25C2320.42 673.75 2317.59 663.5 2311.92 656.5C2306.25 649.333 2298.25 645.75 2287.92 645.75C2277.42 645.75 2269.34 649.333 2263.67 656.5C2258 663.5 2255.17 673.75 2255.17 687.25C2255.17 700.917 2257.92 711.25 2263.42 718.25C2269.09 725.083 2277.17 728.5 2287.67 728.5ZM2499.37 567V751H2468.62V730.75C2464.79 737.75 2459.29 743.25 2452.12 747.25C2444.95 751.083 2436.79 753 2427.62 753C2416.79 753 2407.12 750.25 2398.62 744.75C2390.12 739.25 2383.45 731.5 2378.62 721.5C2373.95 711.333 2371.62 699.75 2371.62 686.75C2371.62 673.75 2373.95 662.333 2378.62 652.5C2383.29 642.667 2389.87 635.083 2398.37 629.75C2406.87 624.25 2416.62 621.5 2427.62 621.5C2436.62 621.5 2444.62 623.417 2451.62 627.25C2458.79 630.917 2464.29 636.167 2468.12 643V567H2499.37ZM2435.87 728.5C2446.2 728.5 2454.2 724.917 2459.87 717.75C2465.7 710.583 2468.62 700.417 2468.62 687.25C2468.62 674.083 2465.79 663.917 2460.12 656.75C2454.45 649.583 2446.45 646 2436.12 646C2425.62 646 2417.45 649.583 2411.62 656.75C2405.95 663.75 2403.12 673.75 2403.12 686.75C2403.12 699.917 2405.95 710.167 2411.62 717.5C2417.45 724.833 2425.54 728.5 2435.87 728.5ZM2643.9 689.5H2556.9C2557.57 703 2560.9 713 2566.9 719.5C2573.07 725.833 2582.15 729 2594.15 729C2607.99 729 2620.82 724.5 2632.65 715.5L2641.65 737C2635.65 741.833 2628.24 745.75 2619.4 748.75C2610.74 751.583 2601.9 753 2592.9 753C2572.24 753 2555.99 747.167 2544.15 735.5C2532.32 723.833 2526.4 707.833 2526.4 687.5C2526.4 674.667 2528.99 663.25 2534.15 653.25C2539.32 643.25 2546.57 635.5 2555.9 630C2565.24 624.333 2575.82 621.5 2587.65 621.5C2604.99 621.5 2618.65 627.167 2628.65 638.5C2638.82 649.667 2643.9 665.083 2643.9 684.75V689.5ZM2588.4 644C2580.07 644 2573.24 646.5 2567.9 651.5C2562.74 656.333 2559.4 663.417 2557.9 672.75H2616.65C2615.65 663.25 2612.74 656.083 2607.9 651.25C2603.24 646.417 2596.74 644 2588.4 644Z" fill="white"/>
</svg>
