<?xml version="1.0" encoding="UTF-8"?>
<svg width="904px" height="1042px" viewBox="0 0 903 1042" version="1.1" xmlns="http://www.w3.org/2000/svg" xmlns:xlink="http://www.w3.org/1999/xlink">
    <title>The Foundation For Public Code Mark</title>
    <style>
        #hexagon-outer, #details {
            fill: black;
        }
        #hexagon-inner {
            fill: white;
        }
    </style>
    <polygon id="hexagon-outer" transform="translate(0, 0)" points="451.015 0 902.03 260.394 902.03 781.181 451.015 1041.57 0 781.181 0 260.394"></polygon>
    <polygon id="hexagon-inner" transform="translate(18, 21)" points="433.013 0 866.025 250 866.025 750 433.013 1000 0 750 0 250"></polygon>
    <g id="details" transform="translate(18, 271)">
        <polygon transform="translate(433, 0)" points="433.025 62 433.025 0 224.59 0 0.013 250 0.013 312"></polygon>
        <polygon transform="translate(0, 0)" points="2.84217e-13 62 433.013 312 433.013 250 0 0"></polygon>
        <polygon transform="translate(488, 302)" points="0 41.905 0 354.021 72 312.393 72 0.277"></polygon>
        <polygon transform="translate(614, 229)" points="72 312.543 0 354.171 0 42.056 72 0.4277"></polygon>
        <polygon transform="translate(740, 156)" points="0 354.321 73 312.115 73 0 0 42.2061"></polygon>
    </g>
</svg>
