<svg width="7815" height="1042" viewBox="0 0 7815 1042" fill="none" xmlns="http://www.w3.org/2000/svg">
<path d="M451 9L894 264.75V776.25L451 1032L8 776.25V264.75L451 9Z" fill="white"/>
<path d="M757.013 781.321L830.013 739.115V427L757.013 469.206V781.321Z" fill="black"/>
<path d="M703.013 812.543L631.013 854.171V542.056L703.013 500.428V812.543Z" fill="black"/>
<path d="M505.013 927.021V614.905L577.013 573.277V885.393L505.013 927.021Z" fill="black"/>
<path fill-rule="evenodd" clip-rule="evenodd" d="M451.015 0L902.03 260.394V781.181L451.015 1041.57L0 781.181V260.394L451.015 0ZM451.013 21L884.025 271H675.59L451.013 521L18.0001 271L451.013 21ZM18 333L18.0001 771L451.013 1021L884.025 771L884.025 333L451.013 583L18 333Z" fill="black"/>
<path d="M1290.5 689V333H1523V384.5H1354.5V482H1513V534H1354.5V689H1290.5ZM1681.75 693C1656.08 693 1633.42 687.667 1613.75 677C1594.42 666.333 1579.42 651.167 1568.75 631.5C1558.42 611.5 1553.25 588.167 1553.25 561.5C1553.25 534.833 1558.42 511.667 1568.75 492C1579.42 472 1594.42 456.667 1613.75 446C1633.42 435.333 1656.08 430 1681.75 430C1707.08 430 1729.42 435.333 1748.75 446C1768.08 456.667 1782.92 472 1793.25 492C1803.92 511.667 1809.25 534.833 1809.25 561.5C1809.25 588.167 1803.92 611.5 1793.25 631.5C1782.92 651.167 1768.08 666.333 1748.75 677C1729.42 687.667 1707.08 693 1681.75 693ZM1681.25 644C1702.58 644 1718.75 637.167 1729.75 623.5C1741.08 609.5 1746.75 588.833 1746.75 561.5C1746.75 534.5 1741.08 514 1729.75 500C1718.42 485.667 1702.42 478.5 1681.75 478.5C1660.75 478.5 1644.58 485.667 1633.25 500C1621.92 514 1616.25 534.5 1616.25 561.5C1616.25 588.833 1621.75 609.5 1632.75 623.5C1644.08 637.167 1660.25 644 1681.25 644ZM2093.15 436.5V689H2032.15V650C2024.15 664 2013.48 674.667 2000.15 682C1986.82 689.333 1971.48 693 1954.15 693C1892.48 693 1861.65 658.333 1861.65 589V436.5H1923.65V589.5C1923.65 607.833 1927.32 621.333 1934.65 630C1942.32 638.667 1953.98 643 1969.65 643C1987.98 643 2002.65 637 2013.65 625C2024.65 613 2030.15 597 2030.15 577V436.5H2093.15ZM2305.5 430C2365.83 430 2396 464.667 2396 534V689H2333.5V537C2333.5 517 2329.67 502.5 2322 493.5C2314.33 484.167 2302.5 479.5 2286.5 479.5C2267.5 479.5 2252.17 485.667 2240.5 498C2228.83 510 2223 526 2223 546V689H2161V508C2161 481.333 2159.67 457.5 2157 436.5H2215.5L2220 478C2228.67 462.667 2240.33 450.833 2255 442.5C2270 434.167 2286.83 430 2305.5 430ZM2703.77 321V689H2642.27V648.5C2634.6 662.5 2623.6 673.5 2609.27 681.5C2594.94 689.167 2578.6 693 2560.27 693C2538.6 693 2519.27 687.5 2502.27 676.5C2485.27 665.5 2471.94 650 2462.27 630C2452.94 609.667 2448.27 586.5 2448.27 560.5C2448.27 534.5 2452.94 511.667 2462.27 492C2471.6 472.333 2484.77 457.167 2501.77 446.5C2518.77 435.5 2538.27 430 2560.27 430C2578.27 430 2594.27 433.833 2608.27 441.5C2622.6 448.833 2633.6 459.333 2641.27 473V321H2703.77ZM2576.77 644C2597.44 644 2613.44 636.833 2624.77 622.5C2636.44 608.167 2642.27 587.833 2642.27 561.5C2642.27 535.167 2636.6 514.833 2625.27 500.5C2613.94 486.167 2597.94 479 2577.27 479C2556.27 479 2539.94 486.167 2528.27 500.5C2516.94 514.5 2511.27 534.5 2511.27 560.5C2511.27 586.833 2516.94 607.333 2528.27 622C2539.94 636.667 2556.1 644 2576.77 644ZM3013.34 436.5V689H2951.84V648.5C2944.17 662.5 2933.17 673.5 2918.84 681.5C2904.51 689.167 2888.17 693 2869.84 693C2847.84 693 2828.34 687.667 2811.34 677C2794.34 666.333 2781.17 651.167 2771.84 631.5C2762.51 611.833 2757.84 589 2757.84 563C2757.84 537 2762.51 514 2771.84 494C2781.51 473.667 2794.84 458 2811.84 447C2828.84 435.667 2848.17 430 2869.84 430C2888.17 430 2904.51 434 2918.84 442C2933.17 449.667 2944.17 460.5 2951.84 474.5V436.5H3013.34ZM2886.84 644C2907.51 644 2923.51 636.833 2934.84 622.5C2946.17 608.167 2951.84 588 2951.84 562C2951.84 535.333 2946.17 514.833 2934.84 500.5C2923.51 486.167 2907.34 479 2886.34 479C2865.67 479 2849.51 486.5 2837.84 501.5C2826.51 516.167 2820.84 536.667 2820.84 563C2820.84 589 2826.51 609 2837.84 623C2849.51 637 2865.84 644 2886.84 644ZM3160.91 483.5V596.5C3160.91 626.167 3174.74 641 3202.41 641C3210.08 641 3218.41 639.667 3227.41 637V686.5C3216.41 690.5 3203.08 692.5 3187.41 692.5C3158.74 692.5 3136.74 684.5 3121.41 668.5C3106.08 652.5 3098.41 629.5 3098.41 599.5V483.5H3049.91V436.5H3098.41V375L3160.91 354V436.5H3227.91V483.5H3160.91ZM3270.86 689V436.5H3332.86V689H3270.86ZM3266.86 322H3336.36V383.5H3266.86V322ZM3515.73 693C3490.07 693 3467.4 687.667 3447.73 677C3428.4 666.333 3413.4 651.167 3402.73 631.5C3392.4 611.5 3387.23 588.167 3387.23 561.5C3387.23 534.833 3392.4 511.667 3402.73 492C3413.4 472 3428.4 456.667 3447.73 446C3467.4 435.333 3490.07 430 3515.73 430C3541.07 430 3563.4 435.333 3582.73 446C3602.07 456.667 3616.9 472 3627.23 492C3637.9 511.667 3643.23 534.833 3643.23 561.5C3643.23 588.167 3637.9 611.5 3627.23 631.5C3616.9 651.167 3602.07 666.333 3582.73 677C3563.4 687.667 3541.07 693 3515.73 693ZM3515.23 644C3536.57 644 3552.73 637.167 3563.73 623.5C3575.07 609.5 3580.73 588.833 3580.73 561.5C3580.73 534.5 3575.07 514 3563.73 500C3552.4 485.667 3536.4 478.5 3515.73 478.5C3494.73 478.5 3478.57 485.667 3467.23 500C3455.9 514 3450.23 534.5 3450.23 561.5C3450.23 588.833 3455.73 609.5 3466.73 623.5C3478.07 637.167 3494.23 644 3515.23 644ZM3841.63 430C3901.97 430 3932.13 464.667 3932.13 534V689H3869.63V537C3869.63 517 3865.8 502.5 3858.13 493.5C3850.47 484.167 3838.63 479.5 3822.63 479.5C3803.63 479.5 3788.3 485.667 3776.63 498C3764.97 510 3759.13 526 3759.13 546V689H3697.13V508C3697.13 481.333 3695.8 457.5 3693.13 436.5H3751.63L3756.13 478C3764.8 462.667 3776.47 450.833 3791.13 442.5C3806.13 434.167 3822.97 430 3841.63 430ZM4255.11 370.5C4228.11 370.5 4214.61 385.333 4214.61 415V436.5H4271.11V483.5H4214.61V689H4152.11V483.5H4104.11V436.5H4152.11V412C4152.11 382 4159.61 359 4174.61 343C4189.94 326.667 4211.78 318.5 4240.11 318.5C4255.78 318.5 4268.94 320.5 4279.61 324.5V374C4270.28 371.667 4262.11 370.5 4255.11 370.5ZM4431.26 693C4405.6 693 4382.93 687.667 4363.26 677C4343.93 666.333 4328.93 651.167 4318.26 631.5C4307.93 611.5 4302.76 588.167 4302.76 561.5C4302.76 534.833 4307.93 511.667 4318.26 492C4328.93 472 4343.93 456.667 4363.26 446C4382.93 435.333 4405.6 430 4431.26 430C4456.6 430 4478.93 435.333 4498.26 446C4517.6 456.667 4532.43 472 4542.76 492C4553.43 511.667 4558.76 534.833 4558.76 561.5C4558.76 588.167 4553.43 611.5 4542.76 631.5C4532.43 651.167 4517.6 666.333 4498.26 677C4478.93 687.667 4456.6 693 4431.26 693ZM4430.76 644C4452.1 644 4468.26 637.167 4479.26 623.5C4490.6 609.5 4496.26 588.833 4496.26 561.5C4496.26 534.5 4490.6 514 4479.26 500C4467.93 485.667 4451.93 478.5 4431.26 478.5C4410.26 478.5 4394.1 485.667 4382.76 500C4371.43 514 4365.76 534.5 4365.76 561.5C4365.76 588.833 4371.26 609.5 4382.26 623.5C4393.6 637.167 4409.76 644 4430.76 644ZM4748.66 430.5C4758.33 430.5 4766.66 431.833 4773.66 434.5L4773.16 491.5C4762.49 487.167 4751.49 485 4740.16 485C4718.83 485 4702.49 491.167 4691.16 503.5C4680.16 515.833 4674.66 532.167 4674.66 552.5V689H4612.66V508C4612.66 481.333 4611.33 457.5 4608.66 436.5H4667.16L4672.16 481C4678.49 464.667 4688.49 452.167 4702.16 443.5C4715.83 434.833 4731.33 430.5 4748.66 430.5ZM4950.17 333H5104.67C5143 333 5172.83 342.333 5194.17 361C5215.5 379.333 5226.17 404.5 5226.17 436.5C5226.17 468.5 5215.33 493.833 5193.67 512.5C5172.33 531.167 5142.67 540.5 5104.67 540.5H5014.67V689H4950.17V333ZM5097.17 490.5C5119.5 490.5 5136.33 486 5147.67 477C5159.33 467.667 5165.17 454.333 5165.17 437C5165.17 419.333 5159.5 406 5148.17 397C5136.83 387.667 5119.83 383 5097.17 383H5014.67V490.5H5097.17ZM5504.28 436.5V689H5443.28V650C5435.28 664 5424.61 674.667 5411.28 682C5397.95 689.333 5382.61 693 5365.28 693C5303.61 693 5272.78 658.333 5272.78 589V436.5H5334.78V589.5C5334.78 607.833 5338.45 621.333 5345.78 630C5353.45 638.667 5365.11 643 5380.78 643C5399.11 643 5413.78 637 5424.78 625C5435.78 613 5441.28 597 5441.28 577V436.5H5504.28ZM5716.13 430C5738.13 430 5757.47 435.5 5774.13 446.5C5791.13 457.167 5804.3 472.333 5813.63 492C5822.97 511.667 5827.63 534.5 5827.63 560.5C5827.63 586.5 5822.8 609.667 5813.13 630C5803.8 650 5790.63 665.5 5773.63 676.5C5756.97 687.5 5737.8 693 5716.13 693C5697.47 693 5680.8 689 5666.13 681C5651.8 673 5640.97 661.833 5633.63 647.5V689H5572.13V321H5634.13V474.5C5641.8 460.5 5652.8 449.667 5667.13 442C5681.47 434 5697.8 430 5716.13 430ZM5699.63 644C5720.3 644 5736.3 636.667 5747.63 622C5758.97 607.333 5764.63 586.833 5764.63 560.5C5764.63 534.5 5758.97 514.5 5747.63 500.5C5736.3 486.167 5720.13 479 5699.13 479C5678.13 479 5661.97 486.167 5650.63 500.5C5639.3 514.833 5633.63 535.167 5633.63 561.5C5633.63 588.167 5639.3 608.667 5650.63 623C5661.97 637 5678.3 644 5699.63 644ZM5882.19 689V321H5944.19V689H5882.19ZM6012.56 689V436.5H6074.56V689H6012.56ZM6008.56 322H6078.06V383.5H6008.56V322ZM6257.43 693C6231.1 693 6208.27 687.667 6188.93 677C6169.6 666.333 6154.77 651.333 6144.43 632C6134.1 612.333 6128.93 589.333 6128.93 563C6128.93 536.667 6134.27 513.5 6144.93 493.5C6155.93 473.5 6171.27 458 6190.93 447C6210.93 435.667 6233.93 430 6259.93 430C6277.93 430 6295.27 432.833 6311.93 438.5C6328.93 444.167 6342.43 452 6352.43 462L6334.93 506C6324.27 497.333 6312.93 490.833 6300.93 486.5C6288.93 481.833 6277.1 479.5 6265.43 479.5C6242.77 479.5 6225.1 486.667 6212.43 501C6199.77 515 6193.43 535.333 6193.43 562C6193.43 588.667 6199.6 609 6211.93 623C6224.6 637 6242.43 644 6265.43 644C6277.1 644 6288.93 641.667 6300.93 637C6312.93 632.333 6324.27 625.667 6334.93 617L6352.43 661C6341.77 671 6327.93 678.833 6310.93 684.5C6293.93 690.167 6276.1 693 6257.43 693ZM6697.61 693.5C6662.61 693.5 6631.94 686 6605.61 671C6579.61 656 6559.61 634.833 6545.61 607.5C6531.61 579.833 6524.61 547.5 6524.61 510.5C6524.61 473.833 6531.61 441.833 6545.61 414.5C6559.61 386.833 6579.61 365.667 6605.61 351C6631.94 336 6662.61 328.5 6697.61 328.5C6721.61 328.5 6744.11 332.333 6765.11 340C6786.44 347.333 6804.11 357.667 6818.11 371L6797.11 418C6781.11 405 6765.11 395.667 6749.11 390C6733.44 384 6716.61 381 6698.61 381C6664.27 381 6637.61 392.167 6618.61 414.5C6599.94 436.833 6590.61 468.833 6590.61 510.5C6590.61 552.5 6599.94 584.833 6618.61 607.5C6637.27 629.833 6663.94 641 6698.61 641C6716.61 641 6733.44 638.167 6749.11 632.5C6765.11 626.5 6781.11 617 6797.11 604L6818.11 651C6804.11 664.333 6786.44 674.833 6765.11 682.5C6744.11 689.833 6721.61 693.5 6697.61 693.5ZM6983.51 693C6957.84 693 6935.17 687.667 6915.51 677C6896.17 666.333 6881.17 651.167 6870.51 631.5C6860.17 611.5 6855.01 588.167 6855.01 561.5C6855.01 534.833 6860.17 511.667 6870.51 492C6881.17 472 6896.17 456.667 6915.51 446C6935.17 435.333 6957.84 430 6983.51 430C7008.84 430 7031.17 435.333 7050.51 446C7069.84 456.667 7084.67 472 7095.01 492C7105.67 511.667 7111.01 534.833 7111.01 561.5C7111.01 588.167 7105.67 611.5 7095.01 631.5C7084.67 651.167 7069.84 666.333 7050.51 677C7031.17 687.667 7008.84 693 6983.51 693ZM6983.01 644C7004.34 644 7020.51 637.167 7031.51 623.5C7042.84 609.5 7048.51 588.833 7048.51 561.5C7048.51 534.5 7042.84 514 7031.51 500C7020.17 485.667 7004.17 478.5 6983.51 478.5C6962.51 478.5 6946.34 485.667 6935.01 500C6923.67 514 6918.01 534.5 6918.01 561.5C6918.01 588.833 6923.51 609.5 6934.51 623.5C6945.84 637.167 6962.01 644 6983.01 644ZM7406.41 321V689H7344.91V648.5C7337.24 662.5 7326.24 673.5 7311.91 681.5C7297.57 689.167 7281.24 693 7262.91 693C7241.24 693 7221.91 687.5 7204.91 676.5C7187.91 665.5 7174.57 650 7164.91 630C7155.57 609.667 7150.91 586.5 7150.91 560.5C7150.91 534.5 7155.57 511.667 7164.91 492C7174.24 472.333 7187.41 457.167 7204.41 446.5C7221.41 435.5 7240.91 430 7262.91 430C7280.91 430 7296.91 433.833 7310.91 441.5C7325.24 448.833 7336.24 459.333 7343.91 473V321H7406.41ZM7279.41 644C7300.07 644 7316.07 636.833 7327.41 622.5C7339.07 608.167 7344.91 587.833 7344.91 561.5C7344.91 535.167 7339.24 514.833 7327.91 500.5C7316.57 486.167 7300.57 479 7279.91 479C7258.91 479 7242.57 486.167 7230.91 500.5C7219.57 514.5 7213.91 534.5 7213.91 560.5C7213.91 586.833 7219.57 607.333 7230.91 622C7242.57 636.667 7258.74 644 7279.41 644ZM7695.48 566H7521.48C7522.81 593 7529.48 613 7541.48 626C7553.81 638.667 7571.98 645 7595.98 645C7623.64 645 7649.31 636 7672.98 618L7690.98 661C7678.98 670.667 7664.14 678.5 7646.48 684.5C7629.14 690.167 7611.48 693 7593.48 693C7552.14 693 7519.64 681.333 7495.98 658C7472.31 634.667 7460.48 602.667 7460.48 562C7460.48 536.333 7465.64 513.5 7475.98 493.5C7486.31 473.5 7500.81 458 7519.48 447C7538.14 435.667 7559.31 430 7582.98 430C7617.64 430 7644.98 441.333 7664.98 464C7685.31 486.333 7695.48 517.167 7695.48 556.5V566ZM7584.48 475C7567.81 475 7554.14 480 7543.48 490C7533.14 499.667 7526.48 513.833 7523.48 532.5H7640.98C7638.98 513.5 7633.14 499.167 7623.48 489.5C7614.14 479.833 7601.14 475 7584.48 475Z" fill="black"/>
</svg>
