<svg width="3082" height="1042" viewBox="0 0 3082 1042" fill="none" xmlns="http://www.w3.org/2000/svg">
<path d="M451.015 0L902.03 260.394V781.181L451.015 1041.57L0 781.181V260.394L451.015 0Z" fill="black"/>
<path d="M451.013 21L884.025 271V771L451.013 1021L18 771V271L451.013 21Z" fill="white"/>
<path d="M884.025 333V271H675.59L451.013 521V583L884.025 333Z" fill="black"/>
<path d="M18 333L451.013 583V521L18 271L18 333Z" fill="black"/>
<path d="M505.013 614.905V927.021L577.013 885.393V573.277L505.013 614.905Z" fill="black"/>
<path d="M703.013 812.543L631.013 854.171V542.056L703.013 500.428V812.543Z" fill="black"/>
<path d="M757.013 781.321L830.013 739.115V427L757.013 469.206V781.321Z" fill="black"/>
<path d="M1289.25 458V280H1405.5V305.75H1321.25V354.5H1400.5V380.5H1321.25V458H1289.25ZM1484.88 460C1472.04 460 1460.71 457.333 1450.88 452C1441.21 446.667 1433.71 439.083 1428.38 429.25C1423.21 419.25 1420.63 407.583 1420.63 394.25C1420.63 380.917 1423.21 369.333 1428.38 359.5C1433.71 349.5 1441.21 341.833 1450.88 336.5C1460.71 331.167 1472.04 328.5 1484.88 328.5C1497.54 328.5 1508.71 331.167 1518.38 336.5C1528.04 341.833 1535.46 349.5 1540.63 359.5C1545.96 369.333 1548.63 380.917 1548.63 394.25C1548.63 407.583 1545.96 419.25 1540.63 429.25C1535.46 439.083 1528.04 446.667 1518.38 452C1508.71 457.333 1497.54 460 1484.88 460ZM1484.63 435.5C1495.29 435.5 1503.38 432.083 1508.88 425.25C1514.54 418.25 1517.38 407.917 1517.38 394.25C1517.38 380.75 1514.54 370.5 1508.88 363.5C1503.21 356.333 1495.21 352.75 1484.88 352.75C1474.38 352.75 1466.29 356.333 1460.63 363.5C1454.96 370.5 1452.13 380.75 1452.13 394.25C1452.13 407.917 1454.88 418.25 1460.38 425.25C1466.04 432.083 1474.13 435.5 1484.63 435.5ZM1690.57 331.75V458H1660.07V438.5C1656.07 445.5 1650.74 450.833 1644.07 454.5C1637.41 458.167 1629.74 460 1621.07 460C1590.24 460 1574.82 442.667 1574.82 408V331.75H1605.82V408.25C1605.82 417.417 1607.66 424.167 1611.32 428.5C1615.16 432.833 1620.99 435 1628.82 435C1637.99 435 1645.32 432 1650.82 426C1656.32 420 1659.07 412 1659.07 402V331.75H1690.57ZM1796.75 328.5C1826.92 328.5 1842 345.833 1842 380.5V458H1810.75V382C1810.75 372 1808.83 364.75 1805 360.25C1801.17 355.583 1795.25 353.25 1787.25 353.25C1777.75 353.25 1770.08 356.333 1764.25 362.5C1758.42 368.5 1755.5 376.5 1755.5 386.5V458H1724.5V367.5C1724.5 354.167 1723.83 342.25 1722.5 331.75H1751.75L1754 352.5C1758.33 344.833 1764.17 338.917 1771.5 334.75C1779 330.583 1787.42 328.5 1796.75 328.5ZM1995.88 274V458H1965.13V437.75C1961.3 444.75 1955.8 450.25 1948.63 454.25C1941.47 458.083 1933.3 460 1924.13 460C1913.3 460 1903.63 457.25 1895.13 451.75C1886.63 446.25 1879.97 438.5 1875.13 428.5C1870.47 418.333 1868.13 406.75 1868.13 393.75C1868.13 380.75 1870.47 369.333 1875.13 359.5C1879.8 349.667 1886.38 342.083 1894.88 336.75C1903.38 331.25 1913.13 328.5 1924.13 328.5C1933.13 328.5 1941.13 330.417 1948.13 334.25C1955.3 337.917 1960.8 343.167 1964.63 350V274H1995.88ZM1932.38 435.5C1942.72 435.5 1950.72 431.917 1956.38 424.75C1962.22 417.583 1965.13 407.417 1965.13 394.25C1965.13 381.083 1962.3 370.917 1956.63 363.75C1950.97 356.583 1942.97 353 1932.63 353C1922.13 353 1913.97 356.583 1908.13 363.75C1902.47 370.75 1899.63 380.75 1899.63 393.75C1899.63 406.917 1902.47 417.167 1908.13 424.5C1913.97 431.833 1922.05 435.5 1932.38 435.5ZM2150.67 331.75V458H2119.92V437.75C2116.09 444.75 2110.59 450.25 2103.42 454.25C2096.25 458.083 2088.09 460 2078.92 460C2067.92 460 2058.17 457.333 2049.67 452C2041.17 446.667 2034.59 439.083 2029.92 429.25C2025.25 419.417 2022.92 408 2022.92 395C2022.92 382 2025.25 370.5 2029.92 360.5C2034.75 350.333 2041.42 342.5 2049.92 337C2058.42 331.333 2068.09 328.5 2078.92 328.5C2088.09 328.5 2096.25 330.5 2103.42 334.5C2110.59 338.333 2116.09 343.75 2119.92 350.75V331.75H2150.67ZM2087.42 435.5C2097.75 435.5 2105.75 431.917 2111.42 424.75C2117.09 417.583 2119.92 407.5 2119.92 394.5C2119.92 381.167 2117.09 370.917 2111.42 363.75C2105.75 356.583 2097.67 353 2087.17 353C2076.84 353 2068.75 356.75 2062.92 364.25C2057.25 371.583 2054.42 381.833 2054.42 395C2054.42 408 2057.25 418 2062.92 425C2068.75 432 2076.92 435.5 2087.42 435.5ZM2224.46 355.25V411.75C2224.46 426.583 2231.37 434 2245.21 434C2249.04 434 2253.21 433.333 2257.71 432V456.75C2252.21 458.75 2245.54 459.75 2237.71 459.75C2223.37 459.75 2212.37 455.75 2204.71 447.75C2197.04 439.75 2193.21 428.25 2193.21 413.25V355.25H2168.96V331.75H2193.21V301L2224.46 290.5V331.75H2257.96V355.25H2224.46ZM2279.43 458V331.75H2310.43V458H2279.43ZM2277.43 274.5H2312.18V305.25H2277.43V274.5ZM2401.87 460C2389.03 460 2377.7 457.333 2367.87 452C2358.2 446.667 2350.7 439.083 2345.37 429.25C2340.2 419.25 2337.62 407.583 2337.62 394.25C2337.62 380.917 2340.2 369.333 2345.37 359.5C2350.7 349.5 2358.2 341.833 2367.87 336.5C2377.7 331.167 2389.03 328.5 2401.87 328.5C2414.53 328.5 2425.7 331.167 2435.37 336.5C2445.03 341.833 2452.45 349.5 2457.62 359.5C2462.95 369.333 2465.62 380.917 2465.62 394.25C2465.62 407.583 2462.95 419.25 2457.62 429.25C2452.45 439.083 2445.03 446.667 2435.37 452C2425.7 457.333 2414.53 460 2401.87 460ZM2401.62 435.5C2412.28 435.5 2420.37 432.083 2425.87 425.25C2431.53 418.25 2434.37 407.917 2434.37 394.25C2434.37 380.75 2431.53 370.5 2425.87 363.5C2420.2 356.333 2412.2 352.75 2401.87 352.75C2391.37 352.75 2383.28 356.333 2377.62 363.5C2371.95 370.5 2369.12 380.75 2369.12 394.25C2369.12 407.917 2371.87 418.25 2377.37 425.25C2383.03 432.083 2391.12 435.5 2401.62 435.5ZM2564.82 328.5C2594.98 328.5 2610.07 345.833 2610.07 380.5V458H2578.82V382C2578.82 372 2576.9 364.75 2573.07 360.25C2569.23 355.583 2563.32 353.25 2555.32 353.25C2545.82 353.25 2538.15 356.333 2532.32 362.5C2526.48 368.5 2523.57 376.5 2523.57 386.5V458H2492.57V367.5C2492.57 354.167 2491.9 342.25 2490.57 331.75H2519.82L2522.07 352.5C2526.4 344.833 2532.23 338.917 2539.57 334.75C2547.07 330.583 2555.48 328.5 2564.82 328.5ZM2714.05 458V280H2830.3V305.75H2746.05V354.5H2825.3V380.5H2746.05V458H2714.05ZM2909.68 460C2896.85 460 2885.51 457.333 2875.68 452C2866.01 446.667 2858.51 439.083 2853.18 429.25C2848.01 419.25 2845.43 407.583 2845.43 394.25C2845.43 380.917 2848.01 369.333 2853.18 359.5C2858.51 349.5 2866.01 341.833 2875.68 336.5C2885.51 331.167 2896.85 328.5 2909.68 328.5C2922.35 328.5 2933.51 331.167 2943.18 336.5C2952.85 341.833 2960.26 349.5 2965.43 359.5C2970.76 369.333 2973.43 380.917 2973.43 394.25C2973.43 407.583 2970.76 419.25 2965.43 429.25C2960.26 439.083 2952.85 446.667 2943.18 452C2933.51 457.333 2922.35 460 2909.68 460ZM2909.43 435.5C2920.1 435.5 2928.18 432.083 2933.68 425.25C2939.35 418.25 2942.18 407.917 2942.18 394.25C2942.18 380.75 2939.35 370.5 2933.68 363.5C2928.01 356.333 2920.01 352.75 2909.68 352.75C2899.18 352.75 2891.1 356.333 2885.43 363.5C2879.76 370.5 2876.93 380.75 2876.93 394.25C2876.93 407.917 2879.68 418.25 2885.18 425.25C2890.85 432.083 2898.93 435.5 2909.43 435.5ZM3068.38 328.75C3073.21 328.75 3077.38 329.417 3080.88 330.75L3080.63 359.25C3075.3 357.083 3069.8 356 3064.13 356C3053.46 356 3045.3 359.083 3039.63 365.25C3034.13 371.417 3031.38 379.583 3031.38 389.75V458H3000.38V367.5C3000.38 354.167 2999.71 342.25 2998.38 331.75H3027.63L3030.13 354C3033.3 345.833 3038.3 339.583 3045.13 335.25C3051.96 330.917 3059.71 328.75 3068.38 328.75ZM1289.25 594H1366.5C1385.67 594 1400.58 598.667 1411.25 608C1421.92 617.167 1427.25 629.75 1427.25 645.75C1427.25 661.75 1421.83 674.417 1411 683.75C1400.33 693.083 1385.5 697.75 1366.5 697.75H1321.5V772H1289.25V594ZM1362.75 672.75C1373.92 672.75 1382.33 670.5 1388 666C1393.83 661.333 1396.75 654.667 1396.75 646C1396.75 637.167 1393.92 630.5 1388.25 626C1382.58 621.333 1374.08 619 1362.75 619H1321.5V672.75H1362.75ZM1566.31 645.75V772H1535.81V752.5C1531.81 759.5 1526.47 764.833 1519.81 768.5C1513.14 772.167 1505.47 774 1496.81 774C1465.97 774 1450.56 756.667 1450.56 722V645.75H1481.56V722.25C1481.56 731.417 1483.39 738.167 1487.06 742.5C1490.89 746.833 1496.72 749 1504.56 749C1513.72 749 1521.06 746 1526.56 740C1532.06 734 1534.81 726 1534.81 716V645.75H1566.31ZM1672.23 642.5C1683.23 642.5 1692.9 645.25 1701.23 650.75C1709.73 656.083 1716.32 663.667 1720.98 673.5C1725.65 683.333 1727.98 694.75 1727.98 707.75C1727.98 720.75 1725.57 732.333 1720.73 742.5C1716.07 752.5 1709.48 760.25 1700.98 765.75C1692.65 771.25 1683.07 774 1672.23 774C1662.9 774 1654.57 772 1647.23 768C1640.07 764 1634.65 758.417 1630.98 751.25V772H1600.23V588H1631.23V664.75C1635.07 657.75 1640.57 652.333 1647.73 648.5C1654.9 644.5 1663.07 642.5 1672.23 642.5ZM1663.98 749.5C1674.32 749.5 1682.32 745.833 1687.98 738.5C1693.65 731.167 1696.48 720.917 1696.48 707.75C1696.48 694.75 1693.65 684.75 1687.98 677.75C1682.32 670.583 1674.23 667 1663.73 667C1653.23 667 1645.15 670.583 1639.48 677.75C1633.82 684.917 1630.98 695.083 1630.98 708.25C1630.98 721.583 1633.82 731.833 1639.48 739C1645.15 746 1653.32 749.5 1663.98 749.5ZM1755.26 772V588H1786.26V772H1755.26ZM1820.45 772V645.75H1851.45V772H1820.45ZM1818.45 588.5H1853.2V619.25H1818.45V588.5ZM1942.88 774C1929.72 774 1918.3 771.333 1908.63 766C1898.97 760.667 1891.55 753.167 1886.38 743.5C1881.22 733.667 1878.63 722.167 1878.63 709C1878.63 695.833 1881.3 684.25 1886.63 674.25C1892.13 664.25 1899.8 656.5 1909.63 651C1919.63 645.333 1931.13 642.5 1944.13 642.5C1953.13 642.5 1961.8 643.917 1970.13 646.75C1978.63 649.583 1985.38 653.5 1990.38 658.5L1981.63 680.5C1976.3 676.167 1970.63 672.917 1964.63 670.75C1958.63 668.417 1952.72 667.25 1946.88 667.25C1935.55 667.25 1926.72 670.833 1920.38 678C1914.05 685 1910.88 695.167 1910.88 708.5C1910.88 721.833 1913.97 732 1920.13 739C1926.47 746 1935.38 749.5 1946.88 749.5C1952.72 749.5 1958.63 748.333 1964.63 746C1970.63 743.667 1976.3 740.333 1981.63 736L1990.38 758C1985.05 763 1978.13 766.917 1969.63 769.75C1961.13 772.583 1952.22 774 1942.88 774ZM2162.97 774.25C2145.47 774.25 2130.14 770.5 2116.97 763C2103.97 755.5 2093.97 744.917 2086.97 731.25C2079.97 717.417 2076.47 701.25 2076.47 682.75C2076.47 664.417 2079.97 648.417 2086.97 634.75C2093.97 620.917 2103.97 610.333 2116.97 603C2130.14 595.5 2145.47 591.75 2162.97 591.75C2174.97 591.75 2186.22 593.667 2196.72 597.5C2207.39 601.167 2216.22 606.333 2223.22 613L2212.72 636.5C2204.72 630 2196.72 625.333 2188.72 622.5C2180.89 619.5 2172.47 618 2163.47 618C2146.3 618 2132.97 623.583 2123.47 634.75C2114.14 645.917 2109.47 661.917 2109.47 682.75C2109.47 703.75 2114.14 719.917 2123.47 731.25C2132.8 742.417 2146.14 748 2163.47 748C2172.47 748 2180.89 746.583 2188.72 743.75C2196.72 740.75 2204.72 736 2212.72 729.5L2223.22 753C2216.22 759.667 2207.39 764.917 2196.72 768.75C2186.22 772.417 2174.97 774.25 2162.97 774.25ZM2305.92 774C2293.09 774 2281.75 771.333 2271.92 766C2262.25 760.667 2254.75 753.083 2249.42 743.25C2244.25 733.25 2241.67 721.583 2241.67 708.25C2241.67 694.917 2244.25 683.333 2249.42 673.5C2254.75 663.5 2262.25 655.833 2271.92 650.5C2281.75 645.167 2293.09 642.5 2305.92 642.5C2318.59 642.5 2329.75 645.167 2339.42 650.5C2349.09 655.833 2356.5 663.5 2361.67 673.5C2367 683.333 2369.67 694.917 2369.67 708.25C2369.67 721.583 2367 733.25 2361.67 743.25C2356.5 753.083 2349.09 760.667 2339.42 766C2329.75 771.333 2318.59 774 2305.92 774ZM2305.67 749.5C2316.34 749.5 2324.42 746.083 2329.92 739.25C2335.59 732.25 2338.42 721.917 2338.42 708.25C2338.42 694.75 2335.59 684.5 2329.92 677.5C2324.25 670.333 2316.25 666.75 2305.92 666.75C2295.42 666.75 2287.34 670.333 2281.67 677.5C2276 684.5 2273.17 694.75 2273.17 708.25C2273.17 721.917 2275.92 732.25 2281.42 739.25C2287.09 746.083 2295.17 749.5 2305.67 749.5ZM2517.37 588V772H2486.62V751.75C2482.79 758.75 2477.29 764.25 2470.12 768.25C2462.95 772.083 2454.79 774 2445.62 774C2434.79 774 2425.12 771.25 2416.62 765.75C2408.12 760.25 2401.45 752.5 2396.62 742.5C2391.95 732.333 2389.62 720.75 2389.62 707.75C2389.62 694.75 2391.95 683.333 2396.62 673.5C2401.29 663.667 2407.87 656.083 2416.37 650.75C2424.87 645.25 2434.62 642.5 2445.62 642.5C2454.62 642.5 2462.62 644.417 2469.62 648.25C2476.79 651.917 2482.29 657.167 2486.12 664V588H2517.37ZM2453.87 749.5C2464.2 749.5 2472.2 745.917 2477.87 738.75C2483.7 731.583 2486.62 721.417 2486.62 708.25C2486.62 695.083 2483.79 684.917 2478.12 677.75C2472.45 670.583 2464.45 667 2454.12 667C2443.62 667 2435.45 670.583 2429.62 677.75C2423.95 684.75 2421.12 694.75 2421.12 707.75C2421.12 720.917 2423.95 731.167 2429.62 738.5C2435.45 745.833 2443.54 749.5 2453.87 749.5ZM2661.9 710.5H2574.9C2575.57 724 2578.9 734 2584.9 740.5C2591.07 746.833 2600.15 750 2612.15 750C2625.99 750 2638.82 745.5 2650.65 736.5L2659.65 758C2653.65 762.833 2646.24 766.75 2637.4 769.75C2628.74 772.583 2619.9 774 2610.9 774C2590.24 774 2573.99 768.167 2562.15 756.5C2550.32 744.833 2544.4 728.833 2544.4 708.5C2544.4 695.667 2546.99 684.25 2552.15 674.25C2557.32 664.25 2564.57 656.5 2573.9 651C2583.24 645.333 2593.82 642.5 2605.65 642.5C2622.99 642.5 2636.65 648.167 2646.65 659.5C2656.82 670.667 2661.9 686.083 2661.9 705.75V710.5ZM2606.4 665C2598.07 665 2591.24 667.5 2585.9 672.5C2580.74 677.333 2577.4 684.417 2575.9 693.75H2634.65C2633.65 684.25 2630.74 677.083 2625.9 672.25C2621.24 667.417 2614.74 665 2606.4 665Z" fill="black"/>
</svg>
