<svg width="7833" height="1042" viewBox="0 0 7833 1042" fill="none" xmlns="http://www.w3.org/2000/svg">
<path d="M451.015 0L902.03 260.394V781.181L451.015 1041.57L0 781.181V260.394L451.015 0Z" fill="black"/>
<path d="M451.013 21L884.025 271V771L451.013 1021L18 771V271L451.013 21Z" fill="white"/>
<path d="M884.025 333V271H675.59L451.013 521V583L884.025 333Z" fill="black"/>
<path d="M18 333L451.013 583V521L18 271L18 333Z" fill="black"/>
<path d="M505.013 614.905V927.021L577.013 885.393V573.277L505.013 614.905Z" fill="black"/>
<path d="M703.013 812.543L631.013 854.171V542.056L703.013 500.428V812.543Z" fill="black"/>
<path d="M757.013 781.321L830.013 739.115V427L757.013 469.206V781.321Z" fill="black"/>
<path d="M1308.5 710V354H1541V405.5H1372.5V503H1531V555H1372.5V710H1308.5ZM1699.75 714C1674.08 714 1651.42 708.667 1631.75 698C1612.42 687.333 1597.42 672.167 1586.75 652.5C1576.42 632.5 1571.25 609.167 1571.25 582.5C1571.25 555.833 1576.42 532.667 1586.75 513C1597.42 493 1612.42 477.667 1631.75 467C1651.42 456.333 1674.08 451 1699.75 451C1725.08 451 1747.42 456.333 1766.75 467C1786.08 477.667 1800.92 493 1811.25 513C1821.92 532.667 1827.25 555.833 1827.25 582.5C1827.25 609.167 1821.92 632.5 1811.25 652.5C1800.92 672.167 1786.08 687.333 1766.75 698C1747.42 708.667 1725.08 714 1699.75 714ZM1699.25 665C1720.58 665 1736.75 658.167 1747.75 644.5C1759.08 630.5 1764.75 609.833 1764.75 582.5C1764.75 555.5 1759.08 535 1747.75 521C1736.42 506.667 1720.42 499.5 1699.75 499.5C1678.75 499.5 1662.58 506.667 1651.25 521C1639.92 535 1634.25 555.5 1634.25 582.5C1634.25 609.833 1639.75 630.5 1650.75 644.5C1662.08 658.167 1678.25 665 1699.25 665ZM2111.15 457.5V710H2050.15V671C2042.15 685 2031.48 695.667 2018.15 703C2004.82 710.333 1989.48 714 1972.15 714C1910.48 714 1879.65 679.333 1879.65 610V457.5H1941.65V610.5C1941.65 628.833 1945.32 642.333 1952.65 651C1960.32 659.667 1971.98 664 1987.65 664C2005.98 664 2020.65 658 2031.65 646C2042.65 634 2048.15 618 2048.15 598V457.5H2111.15ZM2323.5 451C2383.83 451 2414 485.667 2414 555V710H2351.5V558C2351.5 538 2347.67 523.5 2340 514.5C2332.33 505.167 2320.5 500.5 2304.5 500.5C2285.5 500.5 2270.17 506.667 2258.5 519C2246.83 531 2241 547 2241 567V710H2179V529C2179 502.333 2177.67 478.5 2175 457.5H2233.5L2238 499C2246.67 483.667 2258.33 471.833 2273 463.5C2288 455.167 2304.83 451 2323.5 451ZM2721.77 342V710H2660.27V669.5C2652.6 683.5 2641.6 694.5 2627.27 702.5C2612.94 710.167 2596.6 714 2578.27 714C2556.6 714 2537.27 708.5 2520.27 697.5C2503.27 686.5 2489.94 671 2480.27 651C2470.94 630.667 2466.27 607.5 2466.27 581.5C2466.27 555.5 2470.94 532.667 2480.27 513C2489.6 493.333 2502.77 478.167 2519.77 467.5C2536.77 456.5 2556.27 451 2578.27 451C2596.27 451 2612.27 454.833 2626.27 462.5C2640.6 469.833 2651.6 480.333 2659.27 494V342H2721.77ZM2594.77 665C2615.44 665 2631.44 657.833 2642.77 643.5C2654.44 629.167 2660.27 608.833 2660.27 582.5C2660.27 556.167 2654.6 535.833 2643.27 521.5C2631.94 507.167 2615.94 500 2595.27 500C2574.27 500 2557.94 507.167 2546.27 521.5C2534.94 535.5 2529.27 555.5 2529.27 581.5C2529.27 607.833 2534.94 628.333 2546.27 643C2557.94 657.667 2574.1 665 2594.77 665ZM3031.34 457.5V710H2969.84V669.5C2962.17 683.5 2951.17 694.5 2936.84 702.5C2922.51 710.167 2906.17 714 2887.84 714C2865.84 714 2846.34 708.667 2829.34 698C2812.34 687.333 2799.17 672.167 2789.84 652.5C2780.51 632.833 2775.84 610 2775.84 584C2775.84 558 2780.51 535 2789.84 515C2799.51 494.667 2812.84 479 2829.84 468C2846.84 456.667 2866.17 451 2887.84 451C2906.17 451 2922.51 455 2936.84 463C2951.17 470.667 2962.17 481.5 2969.84 495.5V457.5H3031.34ZM2904.84 665C2925.51 665 2941.51 657.833 2952.84 643.5C2964.17 629.167 2969.84 609 2969.84 583C2969.84 556.333 2964.17 535.833 2952.84 521.5C2941.51 507.167 2925.34 500 2904.34 500C2883.67 500 2867.51 507.5 2855.84 522.5C2844.51 537.167 2838.84 557.667 2838.84 584C2838.84 610 2844.51 630 2855.84 644C2867.51 658 2883.84 665 2904.84 665ZM3178.91 504.5V617.5C3178.91 647.167 3192.74 662 3220.41 662C3228.08 662 3236.41 660.667 3245.41 658V707.5C3234.41 711.5 3221.08 713.5 3205.41 713.5C3176.74 713.5 3154.74 705.5 3139.41 689.5C3124.08 673.5 3116.41 650.5 3116.41 620.5V504.5H3067.91V457.5H3116.41V396L3178.91 375V457.5H3245.91V504.5H3178.91ZM3288.86 710V457.5H3350.86V710H3288.86ZM3284.86 343H3354.36V404.5H3284.86V343ZM3533.73 714C3508.07 714 3485.4 708.667 3465.73 698C3446.4 687.333 3431.4 672.167 3420.73 652.5C3410.4 632.5 3405.23 609.167 3405.23 582.5C3405.23 555.833 3410.4 532.667 3420.73 513C3431.4 493 3446.4 477.667 3465.73 467C3485.4 456.333 3508.07 451 3533.73 451C3559.07 451 3581.4 456.333 3600.73 467C3620.07 477.667 3634.9 493 3645.23 513C3655.9 532.667 3661.23 555.833 3661.23 582.5C3661.23 609.167 3655.9 632.5 3645.23 652.5C3634.9 672.167 3620.07 687.333 3600.73 698C3581.4 708.667 3559.07 714 3533.73 714ZM3533.23 665C3554.57 665 3570.73 658.167 3581.73 644.5C3593.07 630.5 3598.73 609.833 3598.73 582.5C3598.73 555.5 3593.07 535 3581.73 521C3570.4 506.667 3554.4 499.5 3533.73 499.5C3512.73 499.5 3496.57 506.667 3485.23 521C3473.9 535 3468.23 555.5 3468.23 582.5C3468.23 609.833 3473.73 630.5 3484.73 644.5C3496.07 658.167 3512.23 665 3533.23 665ZM3859.63 451C3919.97 451 3950.13 485.667 3950.13 555V710H3887.63V558C3887.63 538 3883.8 523.5 3876.13 514.5C3868.47 505.167 3856.63 500.5 3840.63 500.5C3821.63 500.5 3806.3 506.667 3794.63 519C3782.97 531 3777.13 547 3777.13 567V710H3715.13V529C3715.13 502.333 3713.8 478.5 3711.13 457.5H3769.63L3774.13 499C3782.8 483.667 3794.47 471.833 3809.13 463.5C3824.13 455.167 3840.97 451 3859.63 451ZM4158.11 710V354H4390.61V405.5H4222.11V503H4380.61V555H4222.11V710H4158.11ZM4549.36 714C4523.69 714 4501.03 708.667 4481.36 698C4462.03 687.333 4447.03 672.167 4436.36 652.5C4426.03 632.5 4420.86 609.167 4420.86 582.5C4420.86 555.833 4426.03 532.667 4436.36 513C4447.03 493 4462.03 477.667 4481.36 467C4501.03 456.333 4523.69 451 4549.36 451C4574.69 451 4597.03 456.333 4616.36 467C4635.69 477.667 4650.53 493 4660.86 513C4671.53 532.667 4676.86 555.833 4676.86 582.5C4676.86 609.167 4671.53 632.5 4660.86 652.5C4650.53 672.167 4635.69 687.333 4616.36 698C4597.03 708.667 4574.69 714 4549.36 714ZM4548.86 665C4570.19 665 4586.36 658.167 4597.36 644.5C4608.69 630.5 4614.36 609.833 4614.36 582.5C4614.36 555.5 4608.69 535 4597.36 521C4586.03 506.667 4570.03 499.5 4549.36 499.5C4528.36 499.5 4512.19 506.667 4500.86 521C4489.53 535 4483.86 555.5 4483.86 582.5C4483.86 609.833 4489.36 630.5 4500.36 644.5C4511.69 658.167 4527.86 665 4548.86 665ZM4866.76 451.5C4876.42 451.5 4884.76 452.833 4891.76 455.5L4891.26 512.5C4880.59 508.167 4869.59 506 4858.26 506C4836.92 506 4820.59 512.167 4809.26 524.5C4798.26 536.833 4792.76 553.167 4792.76 573.5V710H4730.76V529C4730.76 502.333 4729.42 478.5 4726.76 457.5H4785.26L4790.26 502C4796.59 485.667 4806.59 473.167 4820.26 464.5C4833.92 455.833 4849.42 451.5 4866.76 451.5ZM5068.27 354H5222.77C5261.1 354 5290.93 363.333 5312.27 382C5333.6 400.333 5344.27 425.5 5344.27 457.5C5344.27 489.5 5333.43 514.833 5311.77 533.5C5290.43 552.167 5260.77 561.5 5222.77 561.5H5132.77V710H5068.27V354ZM5215.27 511.5C5237.6 511.5 5254.43 507 5265.77 498C5277.43 488.667 5283.27 475.333 5283.27 458C5283.27 440.333 5277.6 427 5266.27 418C5254.93 408.667 5237.93 404 5215.27 404H5132.77V511.5H5215.27ZM5622.38 457.5V710H5561.38V671C5553.38 685 5542.71 695.667 5529.38 703C5516.05 710.333 5500.71 714 5483.38 714C5421.71 714 5390.88 679.333 5390.88 610V457.5H5452.88V610.5C5452.88 628.833 5456.55 642.333 5463.88 651C5471.55 659.667 5483.21 664 5498.88 664C5517.21 664 5531.88 658 5542.88 646C5553.88 634 5559.38 618 5559.38 598V457.5H5622.38ZM5834.23 451C5856.23 451 5875.56 456.5 5892.23 467.5C5909.23 478.167 5922.4 493.333 5931.73 513C5941.06 532.667 5945.73 555.5 5945.73 581.5C5945.73 607.5 5940.9 630.667 5931.23 651C5921.9 671 5908.73 686.5 5891.73 697.5C5875.06 708.5 5855.9 714 5834.23 714C5815.56 714 5798.9 710 5784.23 702C5769.9 694 5759.06 682.833 5751.73 668.5V710H5690.23V342H5752.23V495.5C5759.9 481.5 5770.9 470.667 5785.23 463C5799.56 455 5815.9 451 5834.23 451ZM5817.73 665C5838.4 665 5854.4 657.667 5865.73 643C5877.06 628.333 5882.73 607.833 5882.73 581.5C5882.73 555.5 5877.06 535.5 5865.73 521.5C5854.4 507.167 5838.23 500 5817.23 500C5796.23 500 5780.06 507.167 5768.73 521.5C5757.4 535.833 5751.73 556.167 5751.73 582.5C5751.73 609.167 5757.4 629.667 5768.73 644C5780.06 658 5796.4 665 5817.73 665ZM6000.29 710V342H6062.29V710H6000.29ZM6130.66 710V457.5H6192.66V710H6130.66ZM6126.66 343H6196.16V404.5H6126.66V343ZM6375.53 714C6349.2 714 6326.36 708.667 6307.03 698C6287.7 687.333 6272.86 672.333 6262.53 653C6252.2 633.333 6247.03 610.333 6247.03 584C6247.03 557.667 6252.36 534.5 6263.03 514.5C6274.03 494.5 6289.36 479 6309.03 468C6329.03 456.667 6352.03 451 6378.03 451C6396.03 451 6413.36 453.833 6430.03 459.5C6447.03 465.167 6460.53 473 6470.53 483L6453.03 527C6442.36 518.333 6431.03 511.833 6419.03 507.5C6407.03 502.833 6395.2 500.5 6383.53 500.5C6360.86 500.5 6343.2 507.667 6330.53 522C6317.86 536 6311.53 556.333 6311.53 583C6311.53 609.667 6317.7 630 6330.03 644C6342.7 658 6360.53 665 6383.53 665C6395.2 665 6407.03 662.667 6419.03 658C6431.03 653.333 6442.36 646.667 6453.03 638L6470.53 682C6459.86 692 6446.03 699.833 6429.03 705.5C6412.03 711.167 6394.2 714 6375.53 714ZM6815.7 714.5C6780.7 714.5 6750.04 707 6723.7 692C6697.7 677 6677.7 655.833 6663.7 628.5C6649.7 600.833 6642.7 568.5 6642.7 531.5C6642.7 494.833 6649.7 462.833 6663.7 435.5C6677.7 407.833 6697.7 386.667 6723.7 372C6750.04 357 6780.7 349.5 6815.7 349.5C6839.7 349.5 6862.2 353.333 6883.2 361C6904.54 368.333 6922.2 378.667 6936.2 392L6915.2 439C6899.2 426 6883.2 416.667 6867.2 411C6851.54 405 6834.7 402 6816.7 402C6782.37 402 6755.7 413.167 6736.7 435.5C6718.04 457.833 6708.7 489.833 6708.7 531.5C6708.7 573.5 6718.04 605.833 6736.7 628.5C6755.37 650.833 6782.04 662 6816.7 662C6834.7 662 6851.54 659.167 6867.2 653.5C6883.2 647.5 6899.2 638 6915.2 625L6936.2 672C6922.2 685.333 6904.54 695.833 6883.2 703.5C6862.2 710.833 6839.7 714.5 6815.7 714.5ZM7101.61 714C7075.94 714 7053.27 708.667 7033.61 698C7014.27 687.333 6999.27 672.167 6988.61 652.5C6978.27 632.5 6973.11 609.167 6973.11 582.5C6973.11 555.833 6978.27 532.667 6988.61 513C6999.27 493 7014.27 477.667 7033.61 467C7053.27 456.333 7075.94 451 7101.61 451C7126.94 451 7149.27 456.333 7168.61 467C7187.94 477.667 7202.77 493 7213.11 513C7223.77 532.667 7229.11 555.833 7229.11 582.5C7229.11 609.167 7223.77 632.5 7213.11 652.5C7202.77 672.167 7187.94 687.333 7168.61 698C7149.27 708.667 7126.94 714 7101.61 714ZM7101.11 665C7122.44 665 7138.61 658.167 7149.61 644.5C7160.94 630.5 7166.61 609.833 7166.61 582.5C7166.61 555.5 7160.94 535 7149.61 521C7138.27 506.667 7122.27 499.5 7101.61 499.5C7080.61 499.5 7064.44 506.667 7053.11 521C7041.77 535 7036.11 555.5 7036.11 582.5C7036.11 609.833 7041.61 630.5 7052.61 644.5C7063.94 658.167 7080.11 665 7101.11 665ZM7524.5 342V710H7463V669.5C7455.34 683.5 7444.34 694.5 7430 702.5C7415.67 710.167 7399.34 714 7381 714C7359.34 714 7340 708.5 7323 697.5C7306 686.5 7292.67 671 7283 651C7273.67 630.667 7269 607.5 7269 581.5C7269 555.5 7273.67 532.667 7283 513C7292.34 493.333 7305.5 478.167 7322.5 467.5C7339.5 456.5 7359 451 7381 451C7399 451 7415 454.833 7429 462.5C7443.34 469.833 7454.34 480.333 7462 494V342H7524.5ZM7397.5 665C7418.17 665 7434.17 657.833 7445.5 643.5C7457.17 629.167 7463 608.833 7463 582.5C7463 556.167 7457.34 535.833 7446 521.5C7434.67 507.167 7418.67 500 7398 500C7377 500 7360.67 507.167 7349 521.5C7337.67 535.5 7332 555.5 7332 581.5C7332 607.833 7337.67 628.333 7349 643C7360.67 657.667 7376.84 665 7397.5 665ZM7813.57 587H7639.57C7640.91 614 7647.57 634 7659.57 647C7671.91 659.667 7690.07 666 7714.07 666C7741.74 666 7767.41 657 7791.07 639L7809.07 682C7797.07 691.667 7782.24 699.5 7764.57 705.5C7747.24 711.167 7729.57 714 7711.57 714C7670.24 714 7637.74 702.333 7614.07 679C7590.41 655.667 7578.57 623.667 7578.57 583C7578.57 557.333 7583.74 534.5 7594.07 514.5C7604.41 494.5 7618.91 479 7637.57 468C7656.24 456.667 7677.41 451 7701.07 451C7735.74 451 7763.07 462.333 7783.07 485C7803.41 507.333 7813.57 538.167 7813.57 577.5V587ZM7702.57 496C7685.91 496 7672.24 501 7661.57 511C7651.24 520.667 7644.57 534.833 7641.57 553.5H7759.07C7757.07 534.5 7751.24 520.167 7741.57 510.5C7732.24 500.833 7719.24 496 7702.57 496Z" fill="black"/>
</svg>
